{"title":"Tooth.Fairy.2010.1080p.BluRay.DTS.x264-LTT","uid":5526730,"size":5872101372,"categoryP":"video","categoryS":"hd___movies","magnet":"?xt=urn:btih:a546dda400453af6fdbb5d613f3a0ad52d972769&amp;dn=Tooth.Fairy.2010.1080p.BluRay.DTS.x264-LTT&amp;tr=udp%3A%2F%2Ftracker.openbittorrent.com%3A80&amp;tr=udp%3A%2F%2Fopen.demonii.com%3A1337&amp;tr=udp%3A%2F%2Ftracker.coppersurfer.tk%3A6969&amp;tr=udp%3A%2F%2Fexodus.desync.com%3A6969","seeders":0,"leechers":1,"uploader":"Ltt_01","files":2,"time":1272798799,"description":"Tooth.Fairy.2010.1080p.BluRay.DTS.mkv\n*************************************\n\nTiTLE......  Tooth Fairy\nYEAR.......  2010\nGENRE......  Comedy | Family | Fantasy \niMDB RATE..  User Rating: 4.6/10 (3,719 votes)\niMDB URL... &lt;a href=&quot; http://www.imdb.com/title/tt0808510/&quot; rel=&quot;nofollow&quot; target=&quot;_NEW&quot;&gt; http://www.imdb.com/title/tt0808510/&lt;/a&gt;\n*************************************************\n\nVideo\nDuration                         : 1h 41mn\nOverall bit rate                 : 7 715 Kbps\nWidth                            : 1 920 pixels\nHeight                           : 1 032 pixels\nDisplay aspect ratio             : 1.860\nFrame rate                       : 23.976 fps\nStream size                      : 4.29 GiB (78%)\n\nAudio\nFormat                           : DTS\nFormat/Info                      : Digital Theater Systems\nBit rate                         : 1 510 Kbps\nChannel(s)                       : 6 channels\nChannel positions                : Front: L C R, Surround: L R, LFE\nSampling rate                    : 48.0 KHz\nResolution                       : 24 bits\nStream size                      : 1.07 GiB (20%)\nLanguage                         : English\n\nSubtitles: English, Brazilian\n*****************************\n\n","torrent":{"xt":"urn:btih:a546dda400453af6fdbb5d613f3a0ad52d972769","amp;dn":"Tooth.Fairy.2010.1080p.BluRay.DTS.x264-LTT","amp;tr":["udp%3A%2F%2Ftracker.openbittorrent.com%3A80","udp%3A%2F%2Fopen.demonii.com%3A1337","udp%3A%2F%2Ftracker.coppersurfer.tk%3A6969","udp%3A%2F%2Fexodus.desync.com%3A6969"],"infoHash":"a546dda400453af6fdbb5d613f3a0ad52d972769","infoHashBuffer":{"type":"Buffer","data":[165,70,221,164,0,69,58,246,253,187,93,97,63,58,10,213,45,151,39,105]},"announce":[],"urlList":[]}}